<svg width="133" height="133" viewBox="0 0 133 133" fill="none" xmlns="http://www.w3.org/2000/svg">
<path d="M0 25C0 11.1929 11.1929 0 25 0H108C121.807 0 133 11.1929 133 25V108C133 121.807 121.807 133 108 133H25C11.1929 133 0 121.807 0 108V25Z" fill="url(#paint0_linear_199_270)"/>
<path d="M77.5746 75.7834C78.7775 74.5571 79.7293 73.1126 80.3774 71.5294C80.9332 70.201 81.2595 68.7898 81.3429 67.3548C81.4243 66.6287 81.4646 65.8986 81.4636 65.1681C81.5837 62.2464 80.7568 59.3632 79.1034 56.9383C77.1859 54.5106 74.6094 52.6721 71.6744 51.6372L67.3296 49.9011C64.8479 49.0962 62.6235 47.6613 60.8793 45.7399C59.6905 44.1215 59.0774 42.1595 59.136 40.1605C59.0523 38.8904 59.2488 37.6177 59.7118 36.4301C60.1749 35.2425 60.8935 34.1686 61.8179 33.2825C63.7565 31.6537 66.2497 30.815 68.7912 30.9367C71.5603 30.9357 74.2756 31.6926 76.636 33.1234C77.8339 33.847 78.9182 34.74 79.8544 35.7739L82 31.3078C80.3502 29.5548 78.3188 28.1953 76.0593 27.3321C73.7603 26.4455 71.3127 25.9959 68.8449 26.0068C66.2441 25.9255 63.6731 26.5732 61.4292 27.8753C59.4075 29.1108 57.8057 30.9153 56.8295 33.0571C55.7499 35.4858 55.219 38.118 55.2739 40.7702C55.1318 43.786 55.9478 46.7701 57.6074 49.3048C59.154 51.3444 61.2102 52.9519 63.5747 53.9697C63.2529 54.0757 62.9311 54.1818 62.6227 54.3143C61.0176 54.9885 59.5635 55.9703 58.3448 57.2033C55.8883 59.6789 54.5197 63.0127 54.5364 66.48C54.5364 66.7716 54.5364 67.0367 54.5364 67.3282C54.5364 67.6198 54.5364 67.6596 54.5364 67.8318C54.4228 70.7527 55.2491 73.6341 56.8966 76.0618C58.8141 78.4894 61.3906 80.328 64.3256 81.3628L68.6706 83.0988C71.1561 83.9039 73.3846 85.3387 75.1341 87.2602C76.3191 88.8798 76.9275 90.8418 76.864 92.8394C76.9486 94.1095 76.7524 95.3827 76.2893 96.5704C75.8262 97.7582 75.1072 98.832 74.1821 99.7176C72.2435 101.346 69.7503 102.185 67.2088 102.063C64.4351 102.067 61.7149 101.31 59.3506 99.8766C58.1568 99.1527 57.077 98.2597 56.1456 97.2261L54 101.692C55.6473 103.448 57.6795 104.808 59.9407 105.668C62.239 106.557 64.6872 107.007 67.1552 106.993C69.7518 107.074 72.3182 106.426 74.5574 105.125C76.5823 103.893 78.1851 102.087 79.1571 99.9428C80.243 97.516 80.7741 94.8826 80.7127 92.2299C80.8548 89.2141 80.0389 86.2298 78.3794 83.6951C76.8062 81.6166 74.7061 79.9847 72.2912 78.964C72.6289 78.8645 72.9603 78.745 73.2835 78.6062C74.8915 77.9601 76.351 77 77.5746 75.7834ZM67.933 76.181C66.2282 76.2133 64.5448 75.802 63.0517 74.9883C61.6408 74.1882 60.4807 73.0187 59.6992 71.6088C58.8494 70.0183 58.4291 68.2383 58.4789 66.4404C58.4315 64.6443 58.8469 62.8658 59.6858 61.2719C60.4598 59.8565 61.6217 58.6852 63.0383 57.8924C64.5462 57.1263 66.2173 56.7267 67.9128 56.7267C69.6084 56.7267 71.2795 57.1263 72.7874 57.8924H72.908C74.2944 58.6842 75.4318 59.8402 76.1935 61.2321C76.9877 62.842 77.4003 64.6096 77.4003 66.4006C77.4003 68.1917 76.9877 69.9592 76.1935 71.5692C75.4121 72.9791 74.252 74.1484 72.8411 74.9485C71.3402 75.7684 69.6476 76.1843 67.933 76.1545V76.181Z" fill="white" stroke="white" stroke-miterlimit="10"/>
<defs>
<linearGradient id="paint0_linear_199_270" x1="133" y1="133" x2="0.499993" y2="0.999998" gradientUnits="userSpaceOnUse">
<stop stop-color="#555CF0" stop-opacity="0.9"/>
<stop offset="0.0001" stop-color="#6A6FF0" stop-opacity="0.91"/>
<stop offset="0.0002" stop-color="#6D9CBA"/>
<stop offset="0.0003" stop-color="#141B1F"/>
<stop offset="1" stop-color="#2C2D3B"/>
</linearGradient>
</defs>
</svg>
